<?xml version="1.0" encoding="utf-8"?>
<!-- Generator: Adobe Illustrator 17.1.0, SVG Export Plug-In . SVG Version: 6.00 Build 0)  -->
<!DOCTYPE svg PUBLIC "-//W3C//DTD SVG 1.1//EN" "http://www.w3.org/Graphics/SVG/1.1/DTD/svg11.dtd">
<svg version="1.1" id="Layer_1" xmlns="http://www.w3.org/2000/svg" xmlns:xlink="http://www.w3.org/1999/xlink" x="0px" y="0px"
	 viewBox="0 0 128 128" enable-background="new 0 0 128 128" xml:space="preserve">
<path fill="#FFFFFF" d="M21.8,122.4c-6-4.6-9.5-13.5-9.5-13.5C7.2,107,0,102.1,0,102.1s4.7-2.6,8.9-3.3c-1.5-8.7,0.5-20.5,0.5-20.5
	S10.8,89,16,97.2c6.4-1.3,11.8-1.8,11.8-1.8s-3.4,4.8-5.2,10.1c4,4,11.3,8.1,14.1,9.1c-6.1-0.3-13-1.5-15.6-2.5
	C21,115.8,21.1,119.7,21.8,122.4z M38.1,71.9c-3.5-7.4-5.8-17.1-5.8-17.1s-8.6,5.3-21.6,18c7.6-15,16.6-24.5,16.6-24.5
	s-3.4-3.4-15.6-4.5C23.5,39.6,36.5,41,36.5,41s5.8-4.9,15.4-7.7c0,0-2.5,3.4-4.4,8.7c13.7,1.5,26.4,9.5,26.4,9.5S52.8,48.2,43.8,51
	C40.6,58.7,38.8,67,38.1,71.9z M68.7,114.5c0.1,2.4,1,4.8,1,4.8s-1.9,0.2-7.1,0.4c-7.4,4.3-16.5,5.9-16.5,5.9s5.8-3.8,8.7-6.8
	c-4.6-0.7-8.7-2.8-8.7-2.8s7.8-0.5,13.5-1.9c2.7-2.7,7.7-9.8,7.7-9.8s0.3,4,0.8,6.6c6.6-3.2,12.1-7.3,12.1-7.3
	S75.3,109.6,68.7,114.5z M120.8,20.3c0.6,11.3-1.8,24.8-5.8,35.4c0-7-0.7-19.8-4.9-28.5c-3.3,2.3-11.8,6.5-23.7,12.6
	c1.8-1.8,9.7-11.2,12-15.2c-8.3,0.1-22.6,1.1-34.5,3.8c7.9-4.4,23.4-9.5,36-11.7C94.4,12,84.1,6.3,76.2,2.4
	c6.4,0.2,30.8,4.8,39.1,11.2c5.5-1.3,12.7-1.5,12.7-1.5C126.3,15.6,124,18.2,120.8,20.3z M21.8,122.4c-6-4.6-9.5-13.5-9.5-13.5
	C7.2,107,0,102.1,0,102.1s4.7-2.6,8.9-3.3c-1.5-8.7,0.5-20.5,0.5-20.5S10.8,89,16,97.2c6.4-1.3,11.8-1.8,11.8-1.8s-3.4,4.8-5.2,10.1
	c4,4,11.3,8.1,14.1,9.1c-6.1-0.3-13-1.5-15.6-2.5C21,115.8,21.1,119.7,21.8,122.4z M38.1,71.9c-3.5-7.4-5.8-17.1-5.8-17.1
	s-8.6,5.3-21.6,18c7.6-15,16.6-24.5,16.6-24.5s-3.4-3.4-15.6-4.5C23.5,39.6,36.5,41,36.5,41s5.8-4.9,15.4-7.7c0,0-2.5,3.4-4.4,8.7
	c13.7,1.5,26.4,9.5,26.4,9.5S52.8,48.2,43.8,51C40.6,58.7,38.8,67,38.1,71.9z M68.7,114.5c0.1,2.4,1,4.8,1,4.8s-1.9,0.2-7.1,0.4
	c-7.4,4.3-16.5,5.9-16.5,5.9s5.8-3.8,8.7-6.8c-4.6-0.7-8.7-2.8-8.7-2.8s7.8-0.5,13.5-1.9c2.7-2.7,7.7-9.8,7.7-9.8s0.3,4,0.8,6.6
	c6.6-3.2,12.1-7.3,12.1-7.3S75.3,109.6,68.7,114.5z M120.8,20.3c0.6,11.3-1.8,24.8-5.8,35.4c0-7-0.7-19.8-4.9-28.5
	c-3.3,2.3-11.8,6.5-23.7,12.6c1.8-1.8,9.7-11.2,12-15.2c-8.3,0.1-22.6,1.1-34.5,3.8c7.9-4.4,23.4-9.5,36-11.7
	C94.4,12,84.1,6.3,76.2,2.4c6.4,0.2,30.8,4.8,39.1,11.2c5.5-1.3,12.7-1.5,12.7-1.5C126.3,15.6,124,18.2,120.8,20.3z"/>
</svg>
