<?xml version="1.0" encoding="utf-8"?>
<!-- Generator: Adobe Illustrator 17.1.0, SVG Export Plug-In . SVG Version: 6.00 Build 0)  -->
<!DOCTYPE svg PUBLIC "-//W3C//DTD SVG 1.1//EN" "http://www.w3.org/Graphics/SVG/1.1/DTD/svg11.dtd">
<svg version="1.1" id="Layer_1" xmlns="http://www.w3.org/2000/svg" xmlns:xlink="http://www.w3.org/1999/xlink" x="0px" y="0px"
	 viewBox="0 0 128 128" enable-background="new 0 0 128 128" xml:space="preserve">
<g>
	<path opacity="0.7" fill="#FFFFFF" enable-background="new    " d="M44.6,45.7c-4.9,2.1-26.2,11.6-34.2,16.2C6.9,60.5,4,59.5,0,58
		C16.6,48.5,34.6,43,34.9,42.5C38.3,43.5,41.1,44.9,44.6,45.7z"/>
	<path opacity="0.7" fill="#FFFFFF" enable-background="new    " d="M60.6,52.4c-4.9,2.1-26.4,12.4-34.3,17.1
		c-3.7-1.9-7.3-3.7-11.1-5.2C31.8,54.6,49,48.2,49.3,47.8C52.4,49,57.2,51,60.6,52.4z"/>
	<path fill="#FFFFFF" d="M112.2,48.7c-4.9,2.1-38.6,13-70.5,34.2c-4-2.5-10.6-6.2-14.5-7.5c16.6-9.7,38.5-24.2,72-32.8
		C104.3,44.8,107.7,46.7,112.2,48.7z"/>
	<path fill="#FFFFFF" d="M128,57.5c-4.9,2.1-45.8,21.6-65.6,38.9c-3.6-2.1-11.5-8.1-15.2-10c15.9-10.3,36.1-25.1,69.2-35.1
		C121.5,53.5,123.9,55.2,128,57.5z"/>
	<path fill="#FFFFFF" d="M44.8,35.4c8.7,2.8,21.5,7.3,29.8,11.5c-2.6,1.4-6.2,2.4-9.4,3.7C44,41.7,35.4,39.1,35,38.8
		C37,38,43.2,36,44.8,35.4z"/>
	<path fill="#FFFFFF" d="M60.3,31.5c8.7,2.8,22,6.6,30.4,10.9c-2.8,0.7-6.9,1.5-10.2,2.9c-21.2-8.9-29-11.2-29.4-11.5
		C53,33,58.7,32,60.3,31.5z"/>
</g>
</svg>
