<?xml version="1.0" encoding="utf-8"?>
<!-- Generator: Adobe Illustrator 17.1.0, SVG Export Plug-In . SVG Version: 6.00 Build 0)  -->
<!DOCTYPE svg PUBLIC "-//W3C//DTD SVG 1.1//EN" "http://www.w3.org/Graphics/SVG/1.1/DTD/svg11.dtd">
<svg version="1.1" id="Layer_1" xmlns="http://www.w3.org/2000/svg" xmlns:xlink="http://www.w3.org/1999/xlink" x="0px" y="0px"
	 viewBox="0 0 128 128" enable-background="new 0 0 128 128" xml:space="preserve">
<g>
	<polygon fill="#FFFFFF" points="98.4,43.7 98.1,43.9 97.5,44.1 96.8,44.3 96.2,44.3 95.7,44.2 95.1,44 94.7,43.8 94.5,43.7 
		94.7,44.5 95.2,46 95.8,47.5 96.6,49.1 97.5,50.5 98.5,51.7 99.5,52.5 100.3,53 101.1,53.2 101.9,53.2 102.7,53.1 103.2,52.9 
		103.7,52.7 103.9,52.5 128,39.3 128,27.6 	"/>
	<polygon fill="#FFFFFF" points="108.8,55.9 100,60.8 98.6,61.5 86.4,35.4 68.5,35.4 43,82.3 43.9,82.2 44.9,82 47.1,81.7 
		49.5,81.2 52,80.7 54.4,80 57,79.2 59.5,78.3 61.4,77.7 62.2,77.3 63,76.9 63.6,76.3 64.3,75.6 64.7,74.8 76.9,49.3 84.8,68.9 
		84.7,69 78.2,72.3 72.3,75.2 67,77.6 62.1,79.7 57.3,81.4 52.6,83 48.1,84.3 43.5,85.4 39.1,86.3 34.9,87 31,87.6 27.5,87.9 
		24.3,88.1 21.7,88.3 19.4,88.2 15.9,87.8 13.5,87.2 11.8,86.5 10.4,85.6 9.2,84.5 8.4,83.2 7.8,81.8 7.7,80.2 7.8,78.2 8.5,76 
		9.7,73.5 11.2,71 13,68.6 15.2,66.2 17.3,64 19.5,62 21.9,60.2 24.6,58.1 27.4,56.3 30,54.7 32.8,53.1 35.7,51.7 38.5,50.4 
		41.4,49.2 44.2,48.3 46.8,47.5 49.1,47 51.2,46.6 53.3,46.5 55.5,46.7 56.7,46.9 56.1,44.7 55,41 54.2,38.5 53.5,36.9 53,36.1 
		52.5,35.6 51.9,35.2 51,34.9 49.6,34.7 47.6,34.8 45.1,35.1 42.2,35.7 39.2,36.6 36.1,37.7 33.1,39 30.3,40.3 27.5,41.8 24.8,43.3 
		22,45 19.2,47 16.3,49 13.8,51 11.6,52.8 9.7,54.7 7.7,56.7 6,58.8 4.3,61.1 2.9,63.4 1.7,65.9 0.8,68.4 0.2,70.9 0,73.3 0.2,76 
		0.7,78.7 1.4,81.5 2.4,84.1 3.5,86.5 4.8,88.6 6.4,90.7 8.2,92.6 10.1,94.2 12.2,95.6 14.5,96.8 17.2,97.7 20.4,98.6 23.9,99.3 
		27.5,99.6 31,99.7 34.4,99.5 37.4,99.3 40.3,98.9 43.2,98.4 46.1,97.8 48.9,97.1 51.5,96.5 54.4,95.6 57.3,94.8 60.2,93.9 
		63.1,92.8 66.1,91.7 69,90.5 72,89.3 75,87.8 78.2,86.3 80,85.3 82.4,84 85.7,82.3 89.3,80.3 96.4,97.8 96.6,98.4 96.9,98.9 
		97.3,99.3 97.8,99.7 98.4,100 98.9,100.2 99.6,100.4 100.2,100.4 116.7,100.4 103.7,72.4 105.9,71.2 116.4,65.3 128,58.9 128,45 
		118.2,50.6 	"/>
</g>
</svg>
