<?xml version="1.0" encoding="utf-8"?>
<!-- Generator: Adobe Illustrator 17.1.0, SVG Export Plug-In . SVG Version: 6.00 Build 0)  -->
<!DOCTYPE svg PUBLIC "-//W3C//DTD SVG 1.1//EN" "http://www.w3.org/Graphics/SVG/1.1/DTD/svg11.dtd">
<svg version="1.1" id="Layer_1" xmlns="http://www.w3.org/2000/svg" xmlns:xlink="http://www.w3.org/1999/xlink" x="0px" y="0px"
	 viewBox="0 0 128 128" enable-background="new 0 0 128 128" xml:space="preserve">
<g>
	<path fill="#FFFFFF" d="M37.8,88.5c-2.9,3.7-7.4,6-12.4,6c-8.7,0-15.8-7.1-15.8-15.8c0-8.7,7.1-15.8,15.8-15.8
		c4.7,0,9,2.1,11.9,5.4l5.9-7.5c-4.6-4.6-10.9-7.4-17.8-7.4C11.3,53.4,0,64.7,0,78.7s11.3,25.3,25.3,25.3c7,0,13.3-2.8,17.9-7.4
		L37.8,88.5z"/>
	<rect x="48.3" y="54.4" fill="#FFFFFF" width="10.7" height="49.1"/>
	<rect x="106.6" y="54.6" fill="#FFFFFF" width="10.7" height="49.1"/>
	<path fill="#FFFFFF" d="M88.3,104c-9.2,0-11.4-7.8-11.6-12.3h-0.1v-28h-9.4v-9h9.4v-9.5l9.5-5.8l-0.3,7.3v8h9.6v9h-9.6v24.9
		c-0.1,0.3-0.1,0.7-0.1,1.1s0,0.7,0.1,1.1v0.6c0.4,2.2,1.8,4,3.8,4.8c0.8,0.3,1.6,0.5,2.5,0.5c2,0,3.8-0.9,5-2.3
		c0.3-0.3,0.5-0.7,0.7-1l0,0C97.9,93.1,98.1,104,88.3,104z"/>
	<path fill="#FFFFFF" d="M85.9,88.5v2.1c-0.1-0.3-0.1-0.7-0.1-1.1C85.8,89.2,85.8,88.8,85.9,88.5z"/>
	<path fill="#FFFFFF" d="M84.5,23.9c-18.1,0-34.2,9.2-43.5,23.2h15.1c7.3-7.1,17.3-11.6,28.3-11.6s21,4.4,28.3,11.6H128
		C118.7,33.3,102.7,23.9,84.5,23.9z"/>
</g>
</svg>
