<?xml version="1.0" encoding="utf-8"?>
<!-- Generator: Adobe Illustrator 17.1.0, SVG Export Plug-In . SVG Version: 6.00 Build 0)  -->
<!DOCTYPE svg PUBLIC "-//W3C//DTD SVG 1.1//EN" "http://www.w3.org/Graphics/SVG/1.1/DTD/svg11.dtd">
<svg version="1.1" id="Layer_1" xmlns="http://www.w3.org/2000/svg" xmlns:xlink="http://www.w3.org/1999/xlink" x="0px" y="0px"
	 viewBox="0 0 128 128" enable-background="new 0 0 128 128" xml:space="preserve">
<g>
	<path fill="#FFFFFF" d="M6.6,92.3c0-6.1,0.1-12.1,0-18.2c0-2,0.7-2.5,2.5-2.5c3.4,0.1,6.8,0,10.2,0.1c2,0.1,2.5-0.7,2.5-2.6
		c-0.1-3.8-0.1-7.6,0-11.4c0-1.7-0.5-2.5-2.3-2.4c-3.6,0.1-7.1,0-10.7,0.1c-1.6,0-2.1-0.5-2.1-2.1c0.1-7.1,0.1-14.2,0-21.4
		c0-1.7,0.9-2.4,2.1-3.2C23.5,20.1,38.3,11.6,53,3c0.3-0.2,0.6-0.3,0.8-0.5c4.3-4,8-2.9,12.7,0.2c17.3,11.3,35,22.2,52.5,33.1
		c1.7,1.1,2.4,2.2,2.4,4.3c-0.1,10.8-0.1,21.7,0,32.5c0,2-0.6,2.7-2.6,2.6c-3.6-0.1-7.1,0-10.7-0.1c-1.6,0-2.4,0.4-2.3,2.2
		c0.1,4,0.1,7.9,0,11.9c0,1.7,0.6,2.3,2.3,2.3c3.6-0.1,7.1,0,10.7,0c1.5,0,2.2,0.4,2.1,2.1c-0.1,5.6-0.1,11.2,0,16.8
		c0,1.9-0.8,2.5-2.4,3c-14.6,4.6-29.2,9.2-43.8,14c-3.2,1-5.7,0.8-8.7-0.4c-11.2-4.5-22.4-8.8-33.6-13.2c-1.2-0.5-2.5-0.7-3.8-0.7
		c-6.5-0.1-13-0.1-19.4,0c-2.3,0.1-2.9-0.8-2.8-2.9C6.7,104.2,6.6,98.2,6.6,92.3z M15.6,40.7c1.1-0.3,2-0.5,2.9-0.8
		c11.1-3.7,22.2-7.3,33.3-11.2c2.6-0.9,4.6-0.6,6.8,0.9C65,34.2,71.6,38.6,78.2,43c2.2,1.5,2.7,3.4,1.3,5.8c-1.6,2.8-3.4,3.4-6,1.9
		c-2.7-1.6-5.3-3.4-8-5.1c-3-1.9-5.1-1.3-7.3,1.9c-2,2.9-1.7,5,1.2,7c6.8,4.8,13.7,9.5,20.6,14.1c0.9,0.6,2.2,1,3.4,1
		c8.9,0.1,17.8,0,26.7,0.1c1.9,0,2.7-0.4,2.7-2.5c-0.1-7.8-0.1-15.7,0-23.5c0-1.5-0.5-2.3-1.7-3.1c-16.7-9.9-33.5-19.9-50.2-29.9
		c-1.6-1-2.9-0.9-4.4,0c-12.6,7.4-25.2,14.8-37.8,22.2C14.7,35,14.4,35.8,15.6,40.7z M83.7,98c-9,0-18,0-27,0
		c-2.9,0-4.4-1.8-4.4-4.9c0.1-2.9,1.2-4,4.2-4c4.3,0,8.6,0.1,12.9-0.1c3.2-0.1,4.7-1.9,4.7-5.2c0-2.9-2.2-5.2-5-5.2
		c-17.2,0-34.5,0-51.7,0c-1.7,0-2.3,0.5-2.3,2.2c0.1,7.5,0.1,15.1,0,22.6c0,1.8,0.6,2.4,2.4,2.4c5.7-0.1,11.5-0.1,17.2,0
		c1.3,0,2.6,0.2,3.8,0.7c9.8,3.8,19.6,7.6,29.3,11.5c2,0.8,3.6,0.8,5.6,0.2c12.2-4.1,24.5-8.1,36.8-12.1c2.2-0.7,3.3-1.7,2.9-4.1
		c-0.1-0.5-0.1-1,0-1.5c0.2-1.9-0.5-2.5-2.4-2.5C101.6,98.1,92.6,98,83.7,98z"/>
</g>
</svg>
