<?xml version="1.0" encoding="utf-8"?>
<!-- Generator: Adobe Illustrator 17.1.0, SVG Export Plug-In . SVG Version: 6.00 Build 0)  -->
<!DOCTYPE svg PUBLIC "-//W3C//DTD SVG 1.1//EN" "http://www.w3.org/Graphics/SVG/1.1/DTD/svg11.dtd">
<svg version="1.1" id="Layer_1" xmlns="http://www.w3.org/2000/svg" xmlns:xlink="http://www.w3.org/1999/xlink" x="0px" y="0px"
	 viewBox="0 0 128 128" enable-background="new 0 0 128 128" xml:space="preserve">
<path fill="#FFFFFF" d="M111.5,21.1c-8.1-9-18.8-15.6-30.5-18.8c-7.6-2.1-15.6-2.7-23.5-1.9C44.3,1.6,31.6,7.1,21.7,15.9
	C13.4,23.2,7.1,32.7,3.4,43.2c-4.2,12.3-4.6,25.8-1,38.3c3,10.8,9,20.8,17.1,28.6c8.1,7.9,18.4,13.6,29.4,16.2
	c15.3,3.8,32,1.7,45.9-6c11.1-6.1,20.4-15.5,26.1-26.7c6.8-13,8.8-28.3,5.8-42.7C124.3,39.7,119,29.4,111.5,21.1z M65.3,110.3
	c-6.3,2.4-13.6,2.9-19.8-0.2c-4.7-2.3-7.9-6.9-9.1-11.8c-1.8-7.1-0.6-14.6,1.8-21.4c1.1-3.1,2.5-6,4-8.9c-5.4,5.4-10.7,10.9-16,16.4
	C34.1,73.6,42.6,63.1,52,53.5c5-4.8,10-9.5,15.2-14c1.8-1.6,3.6-3.1,5.6-4.4c-3.6,4.6-6.6,9.5-9.3,14.6c-3.4,6.4-6.5,13.1-8.5,20.1
	c-2,7.1-3.2,14.9-0.5,22c1.6,3.8,4.4,7.7,8.7,8.7c7.7,1.9,16.1-0.1,22.3-4.9C80,101.8,73.2,107.2,65.3,110.3z M86.5,35.2
	c-1.6-0.8-3.1-1.5-4.7-2.3c-1.5,0.9-3.1,1.7-4.6,2.5c0.3-1.7,0.5-3.4,0.8-5.2c-1.3-1.2-2.6-2.4-3.9-3.6c1.7-0.3,3.4-0.6,5.2-0.9
	c0.7-1.6,1.5-3.2,2.2-4.8c0.8,1.5,1.6,3.1,2.4,4.7c1.7,0.2,3.5,0.5,5.3,0.7c-1.3,1.2-2.4,2.5-3.7,3.8C85.9,31.7,86.2,33.4,86.5,35.2
	z"/>
</svg>
