<?xml version="1.0" encoding="utf-8"?>
<!-- Generator: Adobe Illustrator 17.1.0, SVG Export Plug-In . SVG Version: 6.00 Build 0)  -->
<!DOCTYPE svg PUBLIC "-//W3C//DTD SVG 1.1//EN" "http://www.w3.org/Graphics/SVG/1.1/DTD/svg11.dtd">
<svg version="1.1" id="Layer_1" xmlns="http://www.w3.org/2000/svg" xmlns:xlink="http://www.w3.org/1999/xlink" x="0px" y="0px"
	 viewBox="0 0 128 128" enable-background="new 0 0 128 128" xml:space="preserve">
<path fill="#FFFFFF" d="M61,0h6.1c15.8,0.9,31.3,7.6,42.4,19c10.1,10.2,16.6,23.8,18.1,38c1.5,13.7-1.5,27.8-8.6,39.7
	c-7.4,12.5-19.1,22.3-32.7,27.3c-14.1,5.3-30,5.3-44.1,0.2c-14.2-5.1-26.5-15.5-33.9-28.8C1.3,83.3-1.3,68.8,0.6,54.9
	C2.8,39,11.4,24.1,24,14C34.4,5.6,47.6,0.7,61,0L61,0z M56.8,10.4c-17.1,2.1-32.7,13.1-40.7,28.4c-6.4,12-7.9,26.4-4.3,39.4
	c3.6,13.2,12.4,24.9,24.1,32c10.9,6.7,24.2,9.2,36.8,7.1C88,115,101.9,105.6,110,92.5c6.7-10.8,9.4-23.9,7.5-36.5
	c-2-14-9.9-27-21.2-35.3C85.1,12.2,70.6,8.5,56.8,10.4L56.8,10.4z M29.7,59.1c6.5,0,13.1,0,19.6,0c0,3.3,0,6.5,0,9.8
	c-6.5,0-13.1,0-19.6,0c0,9.9,0,19.7,0,29.6c10.7,0,21.3,0,32,0c0-3.3,0-6.6,0-9.9c-7.4,0-14.7,0-22.1,0c0-3.3,0-6.6,0-9.9
	c6.5,0,13.1,0,19.6,0c0-9.8,0-19.7,0-29.5c-6.5,0-13.1,0-19.6,0c0-3.3,0-6.6,0-9.8c7.4,0,14.7,0,22.1,0c0-3.3,0-6.6,0-9.9
	c-10.7,0-21.3,0-32,0C29.7,39.4,29.7,49.2,29.7,59.1L29.7,59.1z M66.6,29.6c0,3.3,0,6.5,0,9.8c7.4,0,14.7,0,22.1,0
	c0,3.3,0,6.6,0,9.9c-6.5,0-13.1,0-19.6,0c0,9.9,0,19.7,0,29.6c6.5,0,13.1,0,19.6,0c0,3.3,0,6.5,0,9.8c-7.4,0-14.7,0-22.1,0
	c0,3.3,0,6.6,0,9.9c10.6,0,21.3,0,31.9,0c0-9.8,0-19.7,0-29.5c-6.5,0-13.1,0-19.6,0c0-3.3,0-6.6,0-9.9c6.5,0,13.1,0,19.6,0
	c0-9.8,0-19.7,0-29.5C87.9,29.6,77.2,29.6,66.6,29.6L66.6,29.6z"/>
</svg>
