<?xml version="1.0" encoding="utf-8"?>
<!-- Generator: Adobe Illustrator 17.1.0, SVG Export Plug-In . SVG Version: 6.00 Build 0)  -->
<!DOCTYPE svg PUBLIC "-//W3C//DTD SVG 1.1//EN" "http://www.w3.org/Graphics/SVG/1.1/DTD/svg11.dtd">
<svg version="1.1" id="Layer_1" xmlns="http://www.w3.org/2000/svg" xmlns:xlink="http://www.w3.org/1999/xlink" x="0px" y="0px"
	 viewBox="0 0 128 128" enable-background="new 0 0 128 128" xml:space="preserve">
<g>
	<g>
		<g>
			<path fill="#FFFFFF" d="M94.2,95c-2.7-1.4-5.6-2.8-9.9-2.8c-3.8,0-6.9,1.4-9.8,2.8c-3.1,1.4-6.3,2.9-10.6,2.9
				c-3.8,0-6.6-1.3-9.6-2.7c-3.1-1.4-6.3-2.9-10.7-2.9c-3.8,0-6.9,1.4-9.9,2.7c-3.1,1.4-6.4,2.9-10.6,2.9c-0.2,0-0.5,0-0.7,0
				c0.4,0.5,0.9,1.1,1.3,1.6c4.3-0.1,7.5-1.6,10.6-3c3-1.3,5.7-2.6,9.2-2.6c4,0,6.9,1.4,10,2.8c3,1.4,6.2,2.9,10.3,2.9
				c4.6,0,8-1.6,11.3-3.1c2.9-1.3,5.7-2.6,9.2-2.6c3.9,0,6.5,1.3,9.2,2.7c2.9,1.5,6,3,11,3c0.5-0.5,0.9-1.1,1.4-1.7
				c-0.4,0-0.9,0.1-1.3,0.1C99.9,97.8,97,96.4,94.2,95"/>
			<path fill="#FFFFFF" d="M84.3,95.2c-3.8,0-6.9,1.4-9.8,2.8c-3.1,1.4-6.3,2.9-10.6,2.9c-3.8,0-6.6-1.3-9.6-2.7
				c-3.1-1.4-6.3-2.9-10.7-2.9c-3.8,0-6.9,1.4-9.9,2.7c-2.6,1.2-5.4,2.4-8.7,2.8c0.5,0.5,0.9,1,1.4,1.4c3.1-0.5,5.6-1.6,8-2.7
				c3-1.3,5.7-2.6,9.2-2.6c4,0,6.9,1.4,10,2.8c3,1.4,6.2,2.9,10.3,2.9c4.6,0,8-1.6,11.3-3.1c2.9-1.4,5.7-2.6,9.2-2.6
				c3.9,0,6.5,1.3,9.2,2.7c2.4,1.2,4.8,2.4,8.3,2.9c0.5-0.5,1-1,1.4-1.5c-3.9-0.2-6.5-1.6-9-2.8C91.4,96.6,88.6,95.2,84.3,95.2"/>
			<path fill="#FFFFFF" d="M84.3,98.2c-3.8,0-6.9,1.4-9.8,2.8c-3.1,1.4-6.3,2.9-10.6,2.9c-3.8,0-6.6-1.3-9.6-2.7
				c-3.1-1.4-6.3-2.9-10.7-2.9c-3.8,0-6.9,1.4-9.9,2.7c-1.9,0.9-3.9,1.8-6.2,2.3c0.5,0.4,0.9,0.9,1.4,1.3c1.9-0.6,3.7-1.4,5.4-2.1
				c3-1.3,5.7-2.6,9.2-2.6c4,0,6.9,1.4,10,2.8c3,1.4,6.2,2.9,10.3,2.9c4.6,0,8-1.6,11.3-3.1c2.9-1.3,5.7-2.6,9.2-2.6
				c3.9,0,6.5,1.3,9.2,2.6c1.7,0.9,3.4,1.7,5.6,2.3c0.5-0.4,1-0.9,1.5-1.3c-2.5-0.5-4.4-1.5-6.3-2.5C91.4,99.7,88.6,98.2,84.3,98.2"
				/>
			<path fill="#FFFFFF" d="M84.3,101.3c-3.8,0-6.9,1.4-9.8,2.8c-3.1,1.4-6.3,2.9-10.6,2.9c-3.8,0-6.6-1.3-9.6-2.7
				c-3.1-1.4-6.3-2.9-10.7-2.9c-3.8,0-6.9,1.4-9.9,2.7c-1.2,0.5-2.3,1.1-3.6,1.5c0.5,0.4,1,0.8,1.5,1.2c1-0.4,1.9-0.8,2.8-1.2
				c3-1.3,5.7-2.6,9.2-2.6c4,0,6.9,1.4,10,2.8c3,1.4,6.2,2.9,10.3,2.9c4.6,0,8-1.6,11.3-3.1c2.9-1.4,5.7-2.6,9.2-2.6
				c3.9,0,6.5,1.3,9.2,2.7c0.9,0.5,1.9,1,2.9,1.4c0.5-0.4,1-0.8,1.5-1.2c-1.3-0.5-2.5-1.1-3.7-1.7C91.4,102.7,88.6,101.3,84.3,101.3
				"/>
			<path fill="#FFFFFF" d="M84.3,104.3c-3.8,0-6.9,1.4-9.8,2.8c-3.1,1.4-6.3,2.9-10.6,2.9c-3.8,0-6.6-1.3-9.6-2.7
				c-3.1-1.5-6.3-2.9-10.7-2.9c-3.8,0-6.9,1.4-9.9,2.7c-0.3,0.2-0.7,0.3-1,0.5c0.5,0.4,1,0.7,1.5,1.1c0.1,0,0.1,0,0.2-0.1
				c3-1.3,5.7-2.6,9.2-2.6c4,0,6.9,1.4,10,2.8c3,1.4,6.2,2.9,10.3,2.9c4.6,0,8-1.6,11.3-3.1c2.9-1.4,5.7-2.6,9.2-2.6
				c3.9,0,6.5,1.3,9.2,2.7c0.1,0.1,0.2,0.1,0.4,0.2c0.5-0.3,1-0.7,1.5-1c-0.4-0.2-0.8-0.4-1.1-0.6C91.4,105.8,88.6,104.3,84.3,104.3
				"/>
			<path fill="#FFFFFF" d="M74.3,110.1c-3.1,1.4-6.3,2.9-10.6,2.9c-3.8,0-6.6-1.3-9.6-2.7c-3.1-1.4-6.3-2.9-10.7-2.9
				c-3.1,0-5.7,0.9-8.2,2c0.6,0.4,1.1,0.7,1.7,1c2-0.8,4.1-1.4,6.5-1.4c4,0,6.9,1.4,10,2.8c3,1.4,6.2,2.9,10.3,2.9
				c4.6,0,8-1.6,11.3-3.1c2.9-1.3,5.7-2.6,9.2-2.6c2.8,0,4.9,0.6,6.8,1.5c0.6-0.3,1.1-0.7,1.6-1c-2.3-1.1-4.9-2.1-8.4-2.1
				C80.5,107.4,77.3,108.8,74.3,110.1"/>
		</g>
		<path fill="#FFFFFF" d="M64,0C28.7,0,0,28.7,0,64s28.7,64,64,64s64-28.7,64-64S99.3,0,64,0L64,0z M64,117.8
			c-29.7,0-53.8-24.1-53.8-53.8S34.3,10.2,64,10.2s53.8,24.1,53.8,53.8S93.7,117.8,64,117.8"/>
	</g>
	<g>
		<path fill="#FFFFFF" d="M93.9,48.2c-0.4,2-2.4,4.1-3.5,5c-2.5,2-19.1,12.1-21,14.4c-1.9,2.3-2.2,5.8-2.2,8.4v19.5h2.6
			c0-1.7,0-4.6,0-5c0-1.7,1-4.4,3-6.5c3.4-3.6,11.3-8,16.6-11.8c4.3-3.2,4.6-7.5,4.6-11.2c0-3.1,0-11.7,0-13.3L93.9,48.2z"/>
		<path fill="#FFFFFF" d="M67.3,66.4c1.8-2.3,19-12.7,21.4-14.7c2.4-2,5.3-5,5.3-8.9c0-3.3,0-19.5,0-21.8c0,3.1-1.7,5.4-3.9,8.3
			c-2.5,3.3-14,9.5-19.7,13.5c-5.7,4-7.6,7.9-7.6,12.8c0,4.1,0,31.1,0,39.8h2.5c0-5.7,0-18.8,0-20.8C65.2,72,65.4,68.7,67.3,66.4z"
			/>
		<path fill="#FFFFFF" d="M54.3,43.8c-5.2-4-15.8-12.5-17.1-14.2s-4-4.7-4-8.4c0,2.7,0,17.8,0,20.3c0,2.9,1.4,8.1,6.4,11.8
			c5,3.7,12.1,9,14.3,11.2c2.1,2.1,4.1,6,4.1,11.5c0,4,0,14.7,0,19.6h2.5c0-8.4,0-33.8,0-38.9C60.7,50.3,59.5,47.8,54.3,43.8z"/>
	</g>
</g>
</svg>
