<?xml version="1.0" encoding="utf-8"?>
<!-- Generator: Adobe Illustrator 17.1.0, SVG Export Plug-In . SVG Version: 6.00 Build 0)  -->
<!DOCTYPE svg PUBLIC "-//W3C//DTD SVG 1.1//EN" "http://www.w3.org/Graphics/SVG/1.1/DTD/svg11.dtd">
<svg version="1.1" id="Layer_1" xmlns="http://www.w3.org/2000/svg" xmlns:xlink="http://www.w3.org/1999/xlink" x="0px" y="0px"
	 viewBox="0 0 128 128" enable-background="new 0 0 128 128" xml:space="preserve">
<g id="g6429_1_" transform="matrix(1.25,0,0,-1.25,363.7077,521.25435)">
	<path id="path6431_1_" fill="#FFFFFF" d="M-220.1,336.6c0,0,0.6,1,0.9-0.4c0,0,0.6-8.1-4.1-13.1c-3.2-3.3-10.6-8-18.9-5.9
		c0,0,13.3,0.9,16.7,14.1l0.4,1.5C-225.3,332.8-222,333.7-220.1,336.6 M-189.8,377.4c0,0.2,0,0.3-0.1,0.5c0,0-0.2,0.8-0.7,2.2
		c-0.1,0.2-0.2,0.4-0.2,0.6l0,0c0,0.1-0.1,0.2-0.1,0.2c-0.9,2.1-2.6,5.1-5.5,8c0,0,3.1,0.2-0.3,4c0,0-5.6,6.6-16.5,11.7
		c-5.8,2.7-12.4,1.6-11.8-4.9c0.4-4.5-3.8-6.3-7.1-5.9c-3.9,0.5-6.3,3.7-5.6,6.3c0.7,2.8,2.1,5,4.3,6.7c1.5,1.2,2.5,2,5.2,2.5
		c1.6,0.3,3.8,0.9,4.4-1c1.1,0.6,3.1,4.4-3.4,4.4c0,0-1,2.1-3.2,1.7c0,0-6.5,6.4-13.8-1.5c0,0-2.8-1.1-3,0c0.6-0.5,1.7,1,0.3,1.6
		c-0.7,0.3-1.5-0.5-1.6-1.1c-0.1-0.5,0.1-1.7,1.5-1.9c0.4-0.1,1.1,0,1.1,0l-0.5-0.6c-2.2-0.9-4.2-0.2-4.6,1.3
		c0.5-0.3,1.1,0.1,1.2,0.6c0.2,0.6-0.2,1.4-1.1,1.5c-1.2,0.2-1.7-1.2-1.5-2.4c0.4-1.9,2.2-3.2,4.6-2.8l-0.4-0.6c0,0-2.4-3-4.3-6.4
		c-2-3.4-10.1-7.2-8.7,1c0.4,2.6-3.9,5.7-11.6,0.5c-4-2.8-9-7-12.8-13.8c0,0-1.6-2.6,1.1-2.7c0,0-5.5-2.6-5.8-15.1l0,0
		c0,0,0-0.5,0-1.2c0-0.4,0-0.9,0-1.3c0-1.4,0.1-3,0.2-3.9c0,0,0.6-7.5,1.9-8.8c0,0,0.1,0,0.2,0c0.4-0.3,0.9-0.4,1.6,0.3l0,0
		c0-0.1,1.7-8.5,5.1-15.6c2.8-5.6,7.9-13.8,5.9-15.8c-2-2-4.8,2-4.4,0.4c0.9-3.3,4.4-3.8,6.2-2.4c4.8,3.8-2.2,12.9-4.4,24.4
		c4.6,2,4.4,9.2,4.4,9.2s6.5,0.2,8.5,7.9c0,0,7.9-2.3,11.7,4.6c0,0,0,0,0,0.1l0.1,0.1c0.8-2.4,2.3-4.5,4.4-6.4c0,0-0.4-3.3-4.1-4.5
		c0,0-4.5,1.9-9.5,0c-4.5-1.8-2.7-6.6,0.6-5.4c-1,0.5-1.3,2.1,0.3,2.5c0.4-0.3,0.8-0.5,1.3-0.6l0,0c0.1,0,4-0.7,6.8,0.4
		c0.2,0.1,0.4,0.1,0.6,0.3h0.1l0,0c0.3,0.2,0.5,0.4,0.7,0.6c1-0.1,1.7-1.6,0.3-2.3c2.7-0.6,3.7,2.3,2.6,3.8c0,0,0.6,0.4,1.4,1
		c0,0,0.9,0.8,1.5,1.8c0,0,2.7-2.1,7.6-3.3c0,0-2.6-4.3-6.4-5.1c0,0-5.4,1.8-9.1-0.5c0,0-2-1.1-1.7-3.2c0.2-1.6,1.6-2.8,3.5-2.5
		c-0.8,0.4-2.6,2.4-0.3,3.3c0.4-0.6,0.9-1,1.6-1.1l0,0c0,0,3.4-0.8,7.6,1c0.2,0.1,0.3,0.1,0.5,0.2c0,0,0.1,0,0.2,0.1l0,0
		c0.3,0.2,0.5,0.4,0.6,0.6c1.1,0.2,2.6-0.3,2-2.4c1.3,0.2,3.4,2.5,0.3,4.4c0,0,1.8,0.9,3.3,2.2l2.2,2.2c4.3-0.6,7.5-4.7,7.5-9.7
		c0-4.1-3.5-8.9-7.2-9.9c0.1,0,0.3,0.1,0.4,0.1l-0.5-0.1h0.1c-0.6-0.1-1.2-0.2-2-0.2c-3.8,0.1-1.5,4.5-1.5,4.5
		c-0.6,0.1-1.2-0.1-1.7-0.7c-0.6-0.7-0.8-2-0.6-3.4c-0.2,0.1-0.4,0.1-0.5,0.2c-3.3,1.4-3.1,3.9-3.1,3.9c-0.9-0.4-1.5-1.5-1.2-3.4
		c0.5-2.5,3.7-3.6,6.3-3.9c1.5-1.5,3.9-3,9.4-2.1c0,0-2.4-12.8-18.6-12.2c0,0-4.9,1.8-4.7,5.9c0.2,5.5,4,7.4,4,7.4
		c-1.4,0.2-4.8-0.2-6.3-4.7c-0.7-2-0.5-5.4,1.3-7.7c-6.1,1.6-10.7,6.2-8.8,12.6c0.3,1,0.9,2,1.7,2.9c4.6,4.3,11.4,1.7,11.4,1.7
		c-0.3,1.5-2.2,3.5-5.6,3.7c-3.5,0.2-10.2-1.9-10.7-10c-0.5-7.4,4.2-12.8,15.9-14.5l0.2-0.1c0,0,7.1-5,17.1-2.3
		c0,0,20.2,4.1,15.9,27.2c0,0,4.7,15.4-5.2,24.1c6.1-5,13.6-2.1,13.6-2.1c-0.5-14,5.4-15.8,5.4-15.8l0.2,0.1c0,0-11.1-23.9-4.6-27
		c2.2-1,4.8-0.5,6.1,2.3c1.1,2.3-2.4-2.2-4.4-0.3c-2.4,2.4,0.6,8.1,3.5,14.2c4.1,8.2,6.8,14.3,7.3,18.4c0,0,0.6-0.4,1.3-0.1l0.1-0.1
		c1.6,0.4,2.6,7,2.8,8.1C-188.8,370-189.2,374.5-189.8,377.4"/>
</g>
</svg>
