<?xml version="1.0" encoding="utf-8"?>
<!-- Generator: Adobe Illustrator 17.1.0, SVG Export Plug-In . SVG Version: 6.00 Build 0)  -->
<!DOCTYPE svg PUBLIC "-//W3C//DTD SVG 1.1//EN" "http://www.w3.org/Graphics/SVG/1.1/DTD/svg11.dtd">
<svg version="1.1" id="Layer_1" xmlns="http://www.w3.org/2000/svg" xmlns:xlink="http://www.w3.org/1999/xlink" x="0px" y="0px"
	 viewBox="0 0 128 128" enable-background="new 0 0 128 128" xml:space="preserve">
<g>
	<path fill="#FFFFFF" d="M9.7,78.7c0,0,54.3-17.7,118.3,4.5C128,83.2,76.2,72.5,9.7,78.7z"/>
	<path fill="#FFFFFF" d="M0,66.8h2.9l1.6-16.6L11.9,67h0.6L20,49.9l1.5,17h6.6l-2.3-22h-6.7l-4.8,11.7L9.1,44.8H0.3v0.8
		c0,0,2.1-0.3,1.8,2.5L0,66.8z"/>
	<path fill="#FFFFFF" d="M30,46.9v0.7c0,0,1.9-0.2,1.9,2.5c0,2.6,0,17,0,17h5.8V46.9H30z"/>
	<path fill="#FFFFFF" d="M40.9,46.8v4.2h0.6c0,0-0.2-1.7,2.1-1.7h6.7l-10,17V67H59v-2.6H48.2l10.2-16.9v-0.7H40.9z"/>
	<path fill="#FFFFFF" d="M59.3,46.8h7.7v14.4c0,0-0.5,3.9,3.9,3.9h3.5V50c0,0,0.4-2.2-1.8-2.2v-0.9h7.8v8.6h7.4v-6.1
		c0,0,0.3-1.9-1.9-1.9v-0.7h7.7v20h-6c0,0,0.3-1.9,0.3-3.1v-5.9H80v6.4c0,0-0.1,1.3,0.2,2.6c0,0-5.7,0.5-9.3,0.5
		c-3.6,0-10,0.1-10-7.7c0-7.8,0-9.1,0-9.1s0.2-2.9-1.7-2.9V46.8z"/>
	<path fill="#FFFFFF" d="M107.4,46.4c-6.5,0-11.8,4.6-11.8,10.3c0,5.7,5.3,10.3,11.8,10.3c6.5,0,11.8-4.6,11.8-10.3
		C119.2,51,113.9,46.4,107.4,46.4z M107.4,65c-3.3,0-6-3.6-6-8c0-4.4,2.7-8,6-8c3.3,0,5.9,3.6,5.9,8C113.3,61.4,110.7,65,107.4,65z"
		/>
</g>
</svg>
