<?xml version="1.0" encoding="utf-8"?>
<!-- Generator: Adobe Illustrator 17.1.0, SVG Export Plug-In . SVG Version: 6.00 Build 0)  -->
<!DOCTYPE svg PUBLIC "-//W3C//DTD SVG 1.1//EN" "http://www.w3.org/Graphics/SVG/1.1/DTD/svg11.dtd">
<svg version="1.1" id="Layer_1" xmlns="http://www.w3.org/2000/svg" xmlns:xlink="http://www.w3.org/1999/xlink" x="0px" y="0px"
	 viewBox="0 0 128 128" enable-background="new 0 0 128 128" xml:space="preserve">
<g>
	<linearGradient id="SVGID_1_" gradientUnits="userSpaceOnUse" x1="51.0625" y1="108.8894" x2="10.5625" y2="22.1394">
		<stop  offset="0" style="stop-color:#FFFFFF;stop-opacity:0.33"/>
		<stop  offset="1" style="stop-color:#FFFFFF"/>
	</linearGradient>
	<path fill="url(#SVGID_1_)" d="M18.1,33.6c-0.4-7.1,2-14.4,7.4-20.6C12.3,22.9,3.2,37.9,0.7,55C0.3,58,0,61,0,64s0.2,6,0.6,9
		c6.2,19.5,32.4,34.2,63.5,34.2V64C34.3,64,19,49.2,18.1,33.6z"/>
	<linearGradient id="SVGID_2_" gradientUnits="userSpaceOnUse" x1="107.25" y1="100.5" x2="9.4281" y2="100.5">
		<stop  offset="0" style="stop-color:#FFFFFF;stop-opacity:0.33"/>
		<stop  offset="1" style="stop-color:#FFFFFF"/>
	</linearGradient>
	<path fill="url(#SVGID_2_)" d="M111.3,93.7c-11.8,8.3-28.5,13.5-47.1,13.5C33,107.2,6.9,92.5,0.7,73c4.4,31,31,55,63.3,55h0.1
		c16.5,0,31.4-6.2,42.8-16.5C110.6,105.8,112,99.7,111.3,93.7z"/>
	<linearGradient id="SVGID_3_" gradientUnits="userSpaceOnUse" x1="26.0946" y1="12.9963" x2="123.3446" y2="32.9963">
		<stop  offset="0" style="stop-color:#FFFFFF;stop-opacity:0.33"/>
		<stop  offset="1" style="stop-color:#FFFFFF"/>
	</linearGradient>
	<path fill="url(#SVGID_3_)" d="M64.1,0L64.1,0C49.6,0,36.2,4.8,25.6,12.9c-5.3,6.2-7.8,13.6-7.4,20.6c11.8-7.8,28-12.7,46-12.7
		c30.4,0,56.1,14,63,32.9C122.2,23.3,95.9,0.1,64.1,0z"/>
	<linearGradient id="SVGID_4_" gradientUnits="userSpaceOnUse" x1="71.2168" y1="20.1487" x2="121.9668" y2="99.1487">
		<stop  offset="0" style="stop-color:#FFFFFF;stop-opacity:0.33"/>
		<stop  offset="1" style="stop-color:#FFFFFF"/>
	</linearGradient>
	<path fill="url(#SVGID_4_)" d="M127.1,53.7c-6.9-18.9-32.5-32.9-63-32.9V64h0.1c28.8,0,45.2,14.2,47,29.7
		c0.7,5.9-0.7,12.1-4.3,17.7c10.5-9.5,17.9-22.5,20.2-37.1c0.5-3.3,0.8-6.8,0.8-10.3C128,60.5,127.7,57.1,127.1,53.7z"/>
</g>
</svg>
