<?xml version="1.0" encoding="utf-8"?>
<!-- Generator: Adobe Illustrator 17.1.0, SVG Export Plug-In . SVG Version: 6.00 Build 0)  -->
<!DOCTYPE svg PUBLIC "-//W3C//DTD SVG 1.1//EN" "http://www.w3.org/Graphics/SVG/1.1/DTD/svg11.dtd">
<svg version="1.1" id="Layer_1" xmlns="http://www.w3.org/2000/svg" xmlns:xlink="http://www.w3.org/1999/xlink" x="0px" y="0px"
	 viewBox="0 0 128 128" enable-background="new 0 0 128 128" xml:space="preserve">
<g>
	<path fill="#FFFFFF" d="M64,45c-10.4,0-18.9,8.5-18.9,18.9s8.5,19,18.9,19S82.9,74.4,82.9,64S74.4,45,64,45z"/>
	<path fill="#FFFFFF" d="M82.5,18.5c-6.6,0-12.9,1.4-18.5,4c-5.6-2.6-12-4-18.5-4C20.3,18.5,0,38.8,0,64s20.3,45.5,45.5,45.5
		c6.6,0,12.9-1.4,18.5-4c5.6,2.6,12,4,18.5,4c25,0,45.5-20.3,45.5-45.5S107.7,18.5,82.5,18.5z M64,105c-22.7,0-41.1-18.4-41.1-41.1
		S41.3,22.8,64,22.8s41.1,18.4,41.1,41.1S86.7,105,64,105z"/>
</g>
</svg>
