<?xml version="1.0" encoding="utf-8"?>
<!-- Generator: Adobe Illustrator 17.1.0, SVG Export Plug-In . SVG Version: 6.00 Build 0)  -->
<!DOCTYPE svg PUBLIC "-//W3C//DTD SVG 1.1//EN" "http://www.w3.org/Graphics/SVG/1.1/DTD/svg11.dtd">
<svg version="1.1" id="Layer_1" xmlns="http://www.w3.org/2000/svg" xmlns:xlink="http://www.w3.org/1999/xlink" x="0px" y="0px"
	 viewBox="0 0 128 128" enable-background="new 0 0 128 128" xml:space="preserve">
<g>
	<path fill="#FFFFFF" d="M71.6,44.3c0,0,8.9,3.2,12.2,12.5c1.1,3.2,4.6,5.5,8.2,5.5h17.4c4.8,0,8.7-4,8.7-8.7s-4-8.7-8.7-8.7H95.6
		l19.7-19.7c3.5-3.5,3.5-9,0-12.4c-3.5-3.5-8.9-3.5-12.3,0l-20,19.8l0.2-13.9c0-5.1-3.9-8.6-8.6-8.6c-4.8,0-8.7,3.9-8.7,8.6v17.4
		C65.9,39.9,68.4,42.9,71.6,44.3z"/>
	<path fill="#FFFFFF" d="M10,53.5c0,4.8,4,8.8,8.7,8.8h17.4c3.7,0,6.9-2.4,8.2-5.7c0,0,3.1-8.9,12.3-12.2c3.2-1.1,5.5-4.6,5.5-8.2
		V18.8c0-4.8-3.9-8.7-8.6-8.7c-4.9,0-8.7,4-8.7,8.7v13.7L24.8,12.6c-3.4-3.5-8.9-3.5-12.3,0s-3.4,8.9,0,12.3L32.6,45l-13.9-0.1
		C13.2,44.9,10,48.6,10,53.5z"/>
	<path fill="#FFFFFF" d="M74.5,117.9c4.8,0,8.7-3.6,8.7-8.7V95.6l19.8,19.8c3.5,3.5,8.9,3.5,12.3,0c3.5-3.5,3.5-8.9,0-12.3L95.3,83
		l13.9,0.2c5.2,0,8.7-3.9,8.7-8.6s-4-8.7-8.7-8.7H91.8c-3.7,0-6.9,2.4-8.2,5.7c0,0-3.1,8.9-12.3,12.2c-3.2,1.1-5.6,4.6-5.6,8.2v17.4
		C65.8,114,69.7,117.9,74.5,117.9z"/>
	<path fill="#FFFFFF" d="M56.4,83.7c0,0-8.9-3.1-12-12.4c-1.2-3.2-4.6-5.5-8.2-5.5H18.9c-4.9,0-8.7,4-8.7,8.7c0,4.7,3.9,8.7,8.7,8.7
		h13.5l-19.7,19.9c-3.5,3.2-3.5,8.9,0,12.3c3.2,3.5,8.9,3.5,12.3,0l20.1-20.1l-0.2,13.9c-0.2,5.5,3.7,8.6,8.4,8.6
		c4.9,0,8.7-3.9,8.7-8.6V91.9C62.1,88,59.8,84.9,56.4,83.7z"/>
</g>
</svg>
