<?xml version="1.0" encoding="utf-8"?>
<!-- Generator: Adobe Illustrator 17.1.0, SVG Export Plug-In . SVG Version: 6.00 Build 0)  -->
<!DOCTYPE svg PUBLIC "-//W3C//DTD SVG 1.1//EN" "http://www.w3.org/Graphics/SVG/1.1/DTD/svg11.dtd">
<svg version="1.1" id="Layer_1" xmlns="http://www.w3.org/2000/svg" xmlns:xlink="http://www.w3.org/1999/xlink" x="0px" y="0px"
	 viewBox="0 0 128 128" enable-background="new 0 0 128 128" xml:space="preserve">
<g>
	<path opacity="0.7" fill="#FFFFFF" enable-background="new    " d="M47.6,123.6c-3.4,2-6.4,3.2-9.6,3.2c-8.3,0-15.2-6.8-15.6-14.9
		l16.1-9.6l25,11.2L47.6,123.6L47.6,123.6z"/>
	<path opacity="0.7" fill="#FFFFFF" enable-background="new    " d="M57.2,82.4l-12-5.3c-5.3-2.4-10.4-4.4-10.4-10.3
		c0-3.1,0.9-4.6,2.4-6.2l25.3,11.2l-6.3,3.6c-1.7,1.1-2.9,2-2.9,3.3C53.3,80.2,55,81.4,57.2,82.4L57.2,82.4z"/>
	<path opacity="0.7" fill="#FFFFFF" enable-background="new    " d="M69,27.2l-12.3,7.4c-1.1,0.7-2.5,1.7-2.5,3.4
		c0,1.9,2.8,3.3,5.3,4.5l-15.3-6.8c-4.5-2-9-4.2-9-9.7c0-2.3,0.7-4.1,1.7-5.7L70.1,0c4,2.3,7.8,6.8,7.8,12.9
		C77.9,19.5,74.6,23.8,69,27.2L69,27.2z"/>
	<path opacity="0.7" fill="#FFFFFF" enable-background="new    " d="M95.1,51.2l-3,1.7L66.7,41.7L96.2,24c4,2.3,7.9,6.8,7.9,12.9
		C104.1,43.4,100.8,47.9,95.1,51.2L95.1,51.2z"/>
	<path opacity="0.7" fill="#FFFFFF" enable-background="new    " d="M73.7,72.7l15,6.6c5.6,2.5,7.3,5.5,7.3,9.2
		c0,2.1-1.2,4.2-2.9,5.7L67.9,83l4.3-2.4c3.6-2,4.8-3.2,4.8-4.5C77,74.7,76.2,73.8,73.7,72.7L73.7,72.7z"/>
	<path fill="#FFFFFF" d="M100.4,128c-6.4-4.9-13.2-8.2-21.4-12L40.8,99.1c-9.6-4.3-16-10-16-19.6c0-9.3,4.5-13.8,10.4-17.6l2.1-1.3
		c-1.5,1.6-2.4,3.2-2.4,6.2c0,5.9,5,7.9,10.4,10.3l44.5,19.6c7.7,3.3,14.8,9,14.8,18.8C104.6,120.8,102.6,125.6,100.4,128L100.4,128
		z"/>
	<path fill="#FFFFFF" d="M95.9,92.4l-2.8,1.8c1.7-1.5,2.9-3.6,2.9-5.7c0-3.7-1.7-6.7-7.3-9.2l-47.5-21c-9.6-4.2-15.6-9.7-15.6-19.3
		c0-8.8,4.4-14.5,11.3-18.8c-1.1,1.6-1.7,3.4-1.7,5.7c0,5.4,4.5,7.7,9,9.7L90.4,56c8.4,3.7,15.2,9.3,15.2,19.6
		C105.6,83.7,101.9,88.7,95.9,92.4L95.9,92.4z"/>
</g>
</svg>
