<?xml version="1.0" encoding="utf-8"?>
<!-- Generator: Adobe Illustrator 17.1.0, SVG Export Plug-In . SVG Version: 6.00 Build 0)  -->
<!DOCTYPE svg PUBLIC "-//W3C//DTD SVG 1.1//EN" "http://www.w3.org/Graphics/SVG/1.1/DTD/svg11.dtd">
<svg version="1.1" id="Layer_1" xmlns="http://www.w3.org/2000/svg" xmlns:xlink="http://www.w3.org/1999/xlink" x="0px" y="0px"
	 viewBox="0 0 128 128" enable-background="new 0 0 128 128" xml:space="preserve">
<g>
	<path fill="#FFFFFF" d="M96.2,57.1c-2.1-1.4-4.4-2.5-6.7-3.3c-8-2.8-10.1-2.1-14.3,5.4c-3.1,5.5-5.8,11.1-8.9,16.6
		c-1.3,2.4-2.8,4.8-4.8,6.7C51.1,92.8,38,94.6,24.1,93.7c4.2-2.4,7-6,9.4-10.1c3.1-5.4,6.2-10.9,9.1-16.5c3.2-6.1,7.7-10.8,14-13.7
		c1.1-0.5,2.1-0.9,3.2-1.3c-0.1-0.1-0.1-0.2-0.2-0.3c-0.3,0-0.6,0-0.9,0C43.6,54,29.4,58.6,16.6,67.1c-5.6,3.6-10.5,8-14,13.8
		c-4.9,8.2-2.7,16.5,5.8,20.8c2.9,1.5,6.1,2.6,9.2,3.4c10.1,2.4,20.3,1.8,30.4,0c14-2.5,27.3-7.2,39.1-15.3
		c5.6-3.8,10.7-8.3,13.8-14.6C104.4,68.3,102.7,61.5,96.2,57.1z"/>
	<path opacity="0.7" fill="#FFFFFF" enable-background="new    " d="M124.8,21.4c-21.1,0-42.3-0.1-63.4,0.1
		c-5.9,0-11.9,0.5-17.8,1.4c-9.5,1.4-18.4,4.8-25.7,11.3c-3.7,3.2-6.6,7.1-8.4,12c1.1,0.1,1.8,0.2,2.6,0.2c22.9,0,45.9,0.1,68.8-0.1
		c10.5-0.1,20.8-2,30.2-6.9c7.6-3.9,13.3-9.5,17-18C126.6,21.4,125.7,21.4,124.8,21.4z"/>
</g>
</svg>
