<?xml version="1.0" encoding="utf-8"?>
<!-- Generator: Adobe Illustrator 17.1.0, SVG Export Plug-In . SVG Version: 6.00 Build 0)  -->
<!DOCTYPE svg PUBLIC "-//W3C//DTD SVG 1.1//EN" "http://www.w3.org/Graphics/SVG/1.1/DTD/svg11.dtd">
<svg version="1.1" id="Layer_1" xmlns="http://www.w3.org/2000/svg" xmlns:xlink="http://www.w3.org/1999/xlink" x="0px" y="0px"
	 viewBox="0 0 128 128" enable-background="new 0 0 128 128" xml:space="preserve">
<g>
	<g>
		<path fill="#FFFFFF" d="M128,64.2c0.9,33.6-28.4,65.2-66.5,63.8C27.7,126.7,0,98.1,0,64C0,30.3,27.6-0.6,65.2,0
			C101.3,0.6,128.8,30.8,128,64.2z M117.9,60.1c-0.1-7.9-2.9-19.1-9.3-29.3C98.3,14.6,83.8,5.2,64.5,4.7
			c-14.3-0.4-26.6,5.4-36.6,15.5C7.5,40.9,4.5,74.7,20.6,98.8c14.3,21.3,38.9,29.8,61.4,21C103.3,111.6,117.8,89,117.9,60.1z"/>
	</g>
	<path opacity="0.7" fill="#FFFFFF" d="M83.9,82.2c-3.2,3.5-6.1,6.6-9.5,10.3c-4-4.2-8-8.3-11.8-12.4c-3.7-4-3.6-4,0.3-7.9
		c1.8-1.8,3.3-3.9,4.5-5.4C73.5,72.5,78.8,77.5,83.9,82.2z"/>
	<path opacity="0.7" fill="#FFFFFF" d="M81.1,62.5c-5.6-5.9-10.2-10.7-14.6-15.7c-0.5-0.5-0.6-2.2-0.1-2.7c2.5-3,5.2-5.7,8.4-9.2
		c5.3,5.5,10,10.3,14.6,15.2c0.5,0.5,0.5,2.2,0,2.8C86.9,56,84.4,58.7,81.1,62.5z"/>
	<path opacity="0.7" fill="#FFFFFF" d="M71.9,58.4c-5.1,5-10.2,10.1-14.9,14.8c-3.8-3.1-7.3-6-10.6-8.8C52,58.6,57,53.5,62.2,48.1
		C65.4,51.5,68.4,54.7,71.9,58.4z"/>
	<path opacity="0.7" fill="#FFFFFF" d="M62.3,85.3c3.3,3.5,6.2,6.6,9.7,10.2c-4.6,4.5-9.4,9.2-14.4,13.8c-0.5,0.5-2,0.7-2.3,0.3
		c-2.1-2.2-4.6-4.4-5.6-7.1c-0.6-1.6,0.6-4.6,1.9-6.2C54.7,92.6,58.5,89.2,62.3,85.3z"/>
	<path opacity="0.7" fill="#FFFFFF" d="M78.6,69.7c4.6-4.7,9.6-9.8,15-15.3c2.2,2.4,4.9,4.5,6.4,7.2c1.2,2.3,0.6,5.2-1.6,7.3
		c-3.6,3.5-7.1,7.1-10.8,10.8C84.5,76.3,81.5,72.9,78.6,69.7z"/>
	<path opacity="0.7" fill="#FFFFFF" d="M37.2,35.2c5.8,5.8,10.8,10.8,16,16.1c-3.3,3.2-6.5,6.2-9.4,9c-3.9-3.7-8.3-7.4-12.2-11.6
		c-2-2.1-1.6-5,0.2-7.4C33.5,39.4,35.2,37.5,37.2,35.2z"/>
	<path opacity="0.7" fill="#FFFFFF" d="M61.8,42.3c-3.3-3.3-6.9-6.8-10.4-10.4c-3.1-3.3-3.1-6.9,0-10.1c1.5-1.5,3-2.9,4.7-4.5
		c5.3,5.3,10.4,10.4,15.7,15.7C68.6,36,65.4,39,61.8,42.3z"/>
	<path opacity="0.7" fill="#FFFFFF" d="M52.9,76.9c-5,4.8-10.1,9.7-15.6,14.9c-1.5-1.4-3.5-3-5.1-4.9c-2.5-3-2.4-6.2,0.4-9
		c3.6-3.6,7.4-7.1,11.2-10.7C46.5,70.1,49.5,73.4,52.9,76.9z"/>
</g>
</svg>
