<?xml version="1.0" encoding="UTF-8" standalone="no"?><!DOCTYPE svg PUBLIC "-//W3C//DTD SVG 1.1//EN" "http://www.w3.org/Graphics/SVG/1.1/DTD/svg11.dtd"><svg width="100%" height="100%" viewBox="0 0 534 534" version="1.1" xmlns="http://www.w3.org/2000/svg" xmlns:xlink="http://www.w3.org/1999/xlink" xml:space="preserve" xmlns:serif="http://www.serif.com/" style="fill-rule:evenodd;clip-rule:evenodd;stroke-linejoin:round;stroke-miterlimit:2;"><g><circle cx="425.208" cy="291.875" r="54.167" style="fill:none;"/><path d="M108.542,346.042c-30,-0 -54.167,-24.167 -54.167,-54.167l0,-52.083l52.083,-0l0,-50l-52.083,-0l0,-52.084l-50,0l0,154.167c0,57.5 46.667,104.167 104.167,104.167c31.666,-0 60,-14.167 79.166,-36.667c-15.416,-18.333 -25,-41.667 -25,-67.5c0,29.583 -24.583,54.167 -54.166,54.167Z" style="fill:#fff;fill-rule:nonzero;"/><path d="M321.042,291.875c-0,30 -24.167,54.167 -54.167,54.167c-30,-0 -54.167,-24.167 -54.167,-54.167l0,-52.083l52.084,-0l-0,-50l-52.084,-0l0,-52.084l-50,0l0,154.167c0,25.833 9.584,49.583 25,67.5c19.167,22.5 47.5,36.667 79.167,36.667c31.667,-0 60,-14.167 79.167,-36.667c-15.834,-18.333 -25,-41.667 -25,-67.5Z" style="fill:#fff;fill-rule:nonzero;"/><path d="M425.208,187.708c-20,0 -38.333,5.417 -54.166,15l-0,-65l-50,0l-0,154.167c-0,25.833 9.583,49.583 25,67.5c19.166,22.5 47.5,36.667 79.166,36.667c57.5,-0 104.167,-46.667 104.167,-104.167c0,-57.5 -46.667,-104.167 -104.167,-104.167Zm0,158.334c-30,-0 -54.166,-24.167 -54.166,-54.167c-0,-30 24.166,-54.167 54.166,-54.167c30,0 54.167,24.167 54.167,54.167c0,30 -24.583,54.167 -54.167,54.167Z" style="fill:#fff;fill-rule:nonzero;"/></g></svg>